<svg width="22" height="28" viewBox="0 0 22 28" fill="none" xmlns="http://www.w3.org/2000/svg">
<path d="M10.9997 0.666016C8.1707 0.666016 5.45759 1.78982 3.4572 3.79021C1.45681 5.7906 0.333008 8.50371 0.333008 11.3327C0.333008 18.5327 9.73301 26.666 10.133 27.0127C10.3745 27.2193 10.6819 27.3328 10.9997 27.3328C11.3175 27.3328 11.6248 27.2193 11.8663 27.0127C12.333 26.666 21.6663 18.5327 21.6663 11.3327C21.6663 8.50371 20.5425 5.7906 18.5421 3.79021C16.5418 1.78982 13.8286 0.666016 10.9997 0.666016ZM10.9997 24.1993C8.15967 21.5327 2.99967 15.786 2.99967 11.3327C2.99967 9.21095 3.84253 7.17612 5.34282 5.67583C6.84311 4.17554 8.87794 3.33268 10.9997 3.33268C13.1214 3.33268 15.1562 4.17554 16.6565 5.67583C18.1568 7.17612 18.9997 9.21095 18.9997 11.3327C18.9997 15.786 13.8397 21.546 10.9997 24.1993ZM10.9997 5.99935C9.94484 5.99935 8.9137 6.31214 8.03663 6.89818C7.15957 7.48421 6.47598 8.31716 6.07232 9.2917C5.66865 10.2662 5.56303 11.3386 5.76882 12.3732C5.97461 13.4077 6.48256 14.358 7.22844 15.1039C7.97432 15.8498 8.92463 16.3577 9.95919 16.5635C10.9938 16.7693 12.0661 16.6637 13.0407 16.26C14.0152 15.8564 14.8481 15.1728 15.4342 14.2957C16.0202 13.4187 16.333 12.3875 16.333 11.3327C16.333 9.91819 15.7711 8.56164 14.7709 7.56145C13.7707 6.56125 12.4142 5.99935 10.9997 5.99935ZM10.9997 13.9993C10.4723 13.9993 9.95669 13.843 9.51815 13.5499C9.07962 13.2569 8.73783 12.8404 8.53599 12.3532C8.33416 11.8659 8.28135 11.3297 8.38425 10.8124C8.48714 10.2952 8.74112 9.82001 9.11406 9.44707C9.487 9.07413 9.96215 8.82015 10.4794 8.71725C10.9967 8.61436 11.5329 8.66717 12.0202 8.869C12.5074 9.07084 12.9239 9.41263 13.2169 9.85116C13.5099 10.2897 13.6663 10.8053 13.6663 11.3327C13.6663 12.0399 13.3854 12.7182 12.8853 13.2183C12.3852 13.7184 11.7069 13.9993 10.9997 13.9993Z" fill="#FAFAFA"/>
</svg>
