<svg width="32" height="32" viewBox="0 0 32 32" fill="none" xmlns="http://www.w3.org/2000/svg">
<path d="M12 16.0002C11.999 15.8248 12.0326 15.6508 12.0989 15.4884C12.1653 15.3259 12.2631 15.1782 12.3866 15.0536L17.72 9.72025C17.971 9.46918 18.3116 9.32812 18.6666 9.32812C19.0217 9.32812 19.3622 9.46918 19.6133 9.72025C19.8644 9.97132 20.0054 10.3118 20.0054 10.6669C20.0054 11.022 19.8644 11.3625 19.6133 11.6136L15.2133 16.0002L19.6 20.3869C19.8184 20.642 19.9326 20.9701 19.9196 21.3057C19.9066 21.6412 19.7675 21.9595 19.5301 22.197C19.2926 22.4345 18.9743 22.5736 18.6387 22.5865C18.3031 22.5995 17.975 22.4853 17.72 22.2669L12.3866 16.9336C12.1403 16.6852 12.0015 16.35 12 16.0002Z" fill="#F46B5B"/>
</svg>
