<svg width="7" height="11" viewBox="0 0 7 11" fill="none" xmlns="http://www.w3.org/2000/svg">
<path d="M5.93859e-05 5.50019C-0.00070164 5.36858 0.024524 5.23812 0.0742886 5.11628C0.124053 4.99444 0.197378 4.88363 0.290059 4.79019L4.29006 0.790185C4.47836 0.601882 4.73376 0.496094 5.00006 0.496094C5.26636 0.496094 5.52176 0.601882 5.71006 0.790185C5.89836 0.978489 6.00415 1.23388 6.00415 1.50019C6.00415 1.76649 5.89836 2.02188 5.71006 2.21019L2.41006 5.50019L5.70006 8.79019C5.86388 8.98149 5.94949 9.22756 5.93977 9.47924C5.93005 9.73091 5.82572 9.96965 5.64762 10.1477C5.46953 10.3258 5.23079 10.4302 4.97911 10.4399C4.72744 10.4496 4.48136 10.364 4.29006 10.2002L0.290059 6.20019C0.105315 6.01392 0.00116373 5.76253 5.93859e-05 5.50019Z" fill="#A7A7A7"/>
</svg>
