<svg width="134" height="28" viewBox="0 0 134 28" fill="none" xmlns="http://www.w3.org/2000/svg">
<path d="M23.8764 9.98438C23.1477 3.9375 18.571 0.460226 12.5114 0.460226C5.59517 0.460226 0.315341 5.34375 0.315341 13.9091C0.315341 22.4489 5.50568 27.358 12.5114 27.358C19.223 27.358 23.2756 22.8963 23.8764 18.0767L18.277 18.0511C17.7528 20.8509 15.554 22.4616 12.6009 22.4616C8.625 22.4616 5.92756 19.5085 5.92756 13.9091C5.92756 8.46307 8.58665 5.35653 12.6392 5.35653C15.669 5.35653 17.8551 7.10795 18.277 9.98438H23.8764ZM36.6158 27.3835C42.5732 27.3835 46.2805 23.3054 46.2805 17.2585C46.2805 11.1733 42.5732 7.10795 36.6158 7.10795C30.6584 7.10795 26.951 11.1733 26.951 17.2585C26.951 23.3054 30.6584 27.3835 36.6158 27.3835ZM36.6413 23.1648C33.8928 23.1648 32.4865 20.6463 32.4865 17.2202C32.4865 13.794 33.8928 11.2628 36.6413 11.2628C39.3388 11.2628 40.745 13.794 40.745 17.2202C40.745 20.6463 39.3388 23.1648 36.6413 23.1648ZM58.6939 27.3835C63.9226 27.3835 67.2081 24.3153 67.4638 19.8026H62.3246C62.005 21.8991 60.6243 23.0753 58.7578 23.0753C56.2138 23.0753 54.5646 20.9403 54.5646 17.1818C54.5646 13.4744 56.2266 11.3523 58.7578 11.3523C60.7521 11.3523 62.0305 12.669 62.3246 14.625H67.4638C67.2337 10.0866 63.7947 7.10795 58.6683 7.10795C52.7109 7.10795 49.0291 11.2372 49.0291 17.2585C49.0291 23.2287 52.647 27.3835 58.6939 27.3835ZM79.8228 27.3835C85.7802 27.3835 89.4876 23.3054 89.4876 17.2585C89.4876 11.1733 85.7802 7.10795 79.8228 7.10795C73.8654 7.10795 70.158 11.1733 70.158 17.2585C70.158 23.3054 73.8654 27.3835 79.8228 27.3835ZM79.8484 23.1648C77.0998 23.1648 75.6935 20.6463 75.6935 17.2202C75.6935 13.794 77.0998 11.2628 79.8484 11.2628C82.5458 11.2628 83.9521 13.794 83.9521 17.2202C83.9521 20.6463 82.5458 23.1648 79.8484 23.1648ZM101.901 27.3835C107.858 27.3835 111.566 23.3054 111.566 17.2585C111.566 11.1733 107.858 7.10795 101.901 7.10795C95.9435 7.10795 92.2362 11.1733 92.2362 17.2585C92.2362 23.3054 95.9435 27.3835 101.901 27.3835ZM101.926 23.1648C99.1779 23.1648 97.7717 20.6463 97.7717 17.2202C97.7717 13.794 99.1779 11.2628 101.926 11.2628C104.624 11.2628 106.03 13.794 106.03 17.2202C106.03 20.6463 104.624 23.1648 101.926 23.1648ZM120.553 15.6477C120.566 13.1165 122.074 11.6335 124.273 11.6335C126.459 11.6335 127.776 13.0653 127.763 15.4688V27H133.209V14.4972C133.209 9.92045 130.525 7.10795 126.434 7.10795C123.519 7.10795 121.409 8.53977 120.527 10.8281H120.297V7.36364H115.107V27H120.553V15.6477Z" fill="#383838"/>
</svg>
