<svg width="79" height="28" viewBox="0 0 79 28" fill="none" xmlns="http://www.w3.org/2000/svg">
<path d="M0.488 27H6.32V1.8H0.488V27ZM26.3405 27H33.1445L24.3605 15.84L32.4245 7.632H25.7285L17.5205 15.408V0.287998H11.9045V27H17.5205V22.068L20.2205 19.404L26.3405 27ZM44.0424 27.288C50.1984 27.288 54.6624 23.148 54.6624 17.316C54.6624 11.484 50.1984 7.344 44.0424 7.344C37.8864 7.344 33.3864 11.484 33.3864 17.316C33.3864 23.148 37.8864 27.288 44.0424 27.288ZM44.0424 22.68C41.2344 22.68 39.0744 20.664 39.0744 17.316C39.0744 13.968 41.2344 11.952 44.0424 11.952C46.8504 11.952 48.9744 13.968 48.9744 17.316C48.9744 20.664 46.8504 22.68 44.0424 22.68ZM70.1882 7.344C67.5602 7.344 65.2922 8.244 63.7802 9.9V7.632H58.4162V27H64.0322V17.424C64.0322 13.86 65.9762 12.204 68.6762 12.204C71.1602 12.204 72.6002 13.644 72.6002 16.776V27H78.2162V15.912C78.2162 10.008 74.7602 7.344 70.1882 7.344Z" fill="#383838"/>
</svg>
