<svg width="34" height="34" viewBox="0 0 34 34" fill="none" xmlns="http://www.w3.org/2000/svg">
<path d="M31.8333 0.333984H2.16665C1.68042 0.333984 1.2141 0.527139 0.870284 0.870955C0.526467 1.21477 0.333313 1.68109 0.333313 2.16732V31.834C0.333313 32.0747 0.380734 32.3131 0.472867 32.5356C0.565001 32.758 0.700043 32.9601 0.870284 33.1303C1.04052 33.3006 1.24263 33.4356 1.46506 33.5278C1.68749 33.6199 1.92589 33.6673 2.16665 33.6673H18.1333V20.7507H13.8V15.7507H18.1333V12.0007C18.0436 11.1202 18.1475 10.2309 18.4378 9.39488C18.7282 8.5589 19.1979 7.79656 19.8141 7.16134C20.4303 6.52611 21.1779 6.03339 22.0047 5.71771C22.8314 5.40204 23.7173 5.27107 24.6 5.33398C25.8972 5.326 27.1938 5.39278 28.4833 5.53398V10.034H25.8333C23.7333 10.034 23.3333 11.034 23.3333 12.484V15.7007H28.3333L27.6833 20.7007H23.3333V33.6673H31.8333C32.0741 33.6673 32.3125 33.6199 32.5349 33.5278C32.7573 33.4356 32.9594 33.3006 33.1297 33.1303C33.2999 32.9601 33.435 32.758 33.5271 32.5356C33.6192 32.3131 33.6666 32.0747 33.6666 31.834V2.16732C33.6666 1.92656 33.6192 1.68816 33.5271 1.46573C33.435 1.2433 33.2999 1.0412 33.1297 0.870955C32.9594 0.700715 32.7573 0.565672 32.5349 0.473539C32.3125 0.381405 32.0741 0.333984 31.8333 0.333984Z" fill="#FAFAFA"/>
</svg>
