<svg width="7" height="11" viewBox="0 0 7 11" fill="none" xmlns="http://www.w3.org/2000/svg">
<path d="M6.99994 5.49981C7.0007 5.63142 6.97548 5.76188 6.92571 5.88372C6.87595 6.00556 6.80262 6.11637 6.70994 6.20981L2.70994 10.2098C2.52164 10.3981 2.26624 10.5039 1.99994 10.5039C1.73364 10.5039 1.47824 10.3981 1.28994 10.2098C1.10164 10.0215 0.99585 9.76612 0.99585 9.49981C0.99585 9.23351 1.10164 8.97812 1.28994 8.78981L4.58994 5.49981L1.29994 2.20981C1.13611 2.01851 1.05051 1.77244 1.06023 1.52076C1.06995 1.26909 1.17428 1.03035 1.35238 0.852251C1.53047 0.674156 1.76921 0.569825 2.02089 0.560104C2.27256 0.550384 2.51864 0.635988 2.70994 0.799814L6.70994 4.79981C6.89468 4.98608 6.99884 5.23747 6.99994 5.49981Z" fill="#A7A7A7"/>
</svg>
