<svg width="34" height="34" viewBox="0 0 34 34" fill="none" xmlns="http://www.w3.org/2000/svg">
<path d="M25.8997 6.10065C25.5041 6.10065 25.1174 6.21795 24.7885 6.43771C24.4596 6.65748 24.2033 6.96983 24.0519 7.33528C23.9005 7.70074 23.8609 8.10287 23.9381 8.49083C24.0153 8.87879 24.2058 9.23516 24.4855 9.51486C24.7652 9.79457 25.1215 9.98505 25.5095 10.0622C25.8975 10.1394 26.2996 10.0998 26.665 9.94841C27.0305 9.79704 27.3429 9.54069 27.5626 9.21179C27.7824 8.88289 27.8997 8.49621 27.8997 8.10065C27.8997 7.57022 27.689 7.06151 27.3139 6.68644C26.9388 6.31137 26.4301 6.10065 25.8997 6.10065ZM33.5663 10.134C33.5339 8.75115 33.2749 7.38299 32.7997 6.08398C32.3759 4.97254 31.7163 3.96612 30.8663 3.13398C30.041 2.27969 29.0323 1.62428 27.9163 1.21732C26.6208 0.727586 25.2511 0.462668 23.8663 0.433984C22.0997 0.333984 21.533 0.333984 16.9997 0.333984C12.4663 0.333984 11.8997 0.333984 10.133 0.433984C8.74826 0.462668 7.37858 0.727586 6.08301 1.21732C4.96914 1.6284 3.96123 2.28325 3.13301 3.13398C2.27872 3.95928 1.6233 4.96805 1.21634 6.08398C0.726609 7.37956 0.461691 8.74924 0.433008 10.134C0.333008 11.9007 0.333008 12.4673 0.333008 17.0007C0.333008 21.534 0.333008 22.1007 0.433008 23.8673C0.461691 25.2521 0.726609 26.6217 1.21634 27.9173C1.6233 29.0333 2.27872 30.042 3.13301 30.8673C3.96123 31.7181 4.96914 32.3729 6.08301 32.784C7.37858 33.2737 8.74826 33.5386 10.133 33.5673C11.8997 33.6673 12.4663 33.6673 16.9997 33.6673C21.533 33.6673 22.0997 33.6673 23.8663 33.5673C25.2511 33.5386 26.6208 33.2737 27.9163 32.784C29.0323 32.377 30.041 31.7216 30.8663 30.8673C31.7201 30.0383 32.3802 29.031 32.7997 27.9173C33.2749 26.6183 33.5339 25.2502 33.5663 23.8673C33.5663 22.1007 33.6663 21.534 33.6663 17.0007C33.6663 12.4673 33.6663 11.9007 33.5663 10.134ZM30.5663 23.6673C30.5542 24.7253 30.3626 25.7735 29.9997 26.7673C29.7336 27.4926 29.3061 28.148 28.7497 28.684C28.2091 29.2348 27.5551 29.6614 26.833 29.934C25.8392 30.2969 24.791 30.4885 23.733 30.5007C22.0663 30.584 21.4497 30.6007 17.0663 30.6007C12.683 30.6007 12.0663 30.6007 10.3997 30.5007C9.30116 30.5212 8.20733 30.3521 7.16634 30.0007C6.47598 29.7141 5.85193 29.2886 5.33301 28.7507C4.77982 28.2152 4.35775 27.5593 4.09967 26.834C3.69277 25.8259 3.46708 24.7539 3.43301 23.6673C3.43301 22.0007 3.33301 21.384 3.33301 17.0007C3.33301 12.6173 3.33301 12.0007 3.43301 10.334C3.44048 9.25241 3.63792 8.18056 4.01634 7.16732C4.30975 6.46384 4.76012 5.83675 5.33301 5.33398C5.83936 4.76093 6.46515 4.30581 7.16634 4.00065C8.18226 3.63406 9.253 3.44245 10.333 3.43398C11.9997 3.43398 12.6163 3.33398 16.9997 3.33398C21.383 3.33398 21.9997 3.33398 23.6663 3.43398C24.7243 3.44612 25.7725 3.63773 26.7663 4.00065C27.5237 4.28174 28.2035 4.73873 28.7497 5.33398C29.2958 5.84595 29.7226 6.47187 29.9997 7.16732C30.3701 8.18221 30.5618 9.25362 30.5663 10.334C30.6497 12.0007 30.6663 12.6173 30.6663 17.0007C30.6663 21.384 30.6497 22.0007 30.5663 23.6673ZM16.9997 8.45065C15.3094 8.45395 13.6579 8.95819 12.2541 9.89968C10.8503 10.8412 9.75697 12.1776 9.1124 13.7402C8.46782 15.3028 8.30088 17.0214 8.63266 18.6789C8.96445 20.3363 9.78007 21.8582 10.9765 23.0523C12.1729 24.2464 13.6964 25.059 15.3544 25.3876C17.0125 25.7161 18.7308 25.5458 20.2921 24.8982C21.8535 24.2506 23.1878 23.1547 24.1266 21.749C25.0653 20.3434 25.5663 18.691 25.5663 17.0007C25.5685 15.8758 25.3483 14.7617 24.9184 13.7222C24.4885 12.6828 23.8573 11.7387 23.0611 10.9441C22.265 10.1495 21.3196 9.52011 20.2793 9.0922C19.2391 8.66428 18.1245 8.44626 16.9997 8.45065ZM16.9997 22.5507C15.902 22.5507 14.829 22.2252 13.9163 21.6153C13.0036 21.0055 12.2922 20.1387 11.8721 19.1245C11.4521 18.1104 11.3422 16.9945 11.5563 15.9179C11.7705 14.8413 12.2991 13.8524 13.0752 13.0762C13.8514 12.3 14.8403 11.7714 15.9169 11.5573C16.9935 11.3431 18.1094 11.4531 19.1236 11.8731C20.1377 12.2932 21.0045 13.0045 21.6143 13.9172C22.2242 14.8299 22.5497 15.903 22.5497 17.0007C22.5497 17.7295 22.4061 18.4512 22.1272 19.1245C21.8483 19.7979 21.4395 20.4097 20.9241 20.9251C20.4088 21.4405 19.7969 21.8493 19.1236 22.1282C18.4502 22.4071 17.7285 22.5507 16.9997 22.5507Z" fill="#FAFAFA"/>
</svg>
