<svg width="34" height="34" viewBox="0 0 34 34" fill="none" xmlns="http://www.w3.org/2000/svg">
<path d="M25.9 6.10065C25.5044 6.10065 25.1177 6.21795 24.7888 6.43771C24.4599 6.65748 24.2036 6.96983 24.0522 7.33528C23.9008 7.70074 23.8612 8.10287 23.9384 8.49083C24.0156 8.87879 24.2061 9.23516 24.4858 9.51486C24.7655 9.79457 25.1218 9.98505 25.5098 10.0622C25.8978 10.1394 26.2999 10.0998 26.6653 9.94841C27.0308 9.79704 27.3432 9.54069 27.5629 9.21179C27.7827 8.88289 27.9 8.49621 27.9 8.10065C27.9 7.57022 27.6893 7.06151 27.3142 6.68644C26.9391 6.31137 26.4304 6.10065 25.9 6.10065ZM33.5667 10.134C33.5342 8.75115 33.2752 7.38299 32.8 6.08398C32.3762 4.97254 31.7166 3.96612 30.8666 3.13398C30.0414 2.27969 29.0326 1.62428 27.9166 1.21732C26.6211 0.727586 25.2514 0.462668 23.8666 0.433984C22.1 0.333984 21.5333 0.333984 17 0.333984C12.4666 0.333984 11.9 0.333984 10.1333 0.433984C8.74857 0.462668 7.37888 0.727586 6.08331 1.21732C4.96944 1.6284 3.96154 2.28325 3.13331 3.13398C2.27902 3.95928 1.62361 4.96805 1.21665 6.08398C0.726914 7.37956 0.461996 8.74924 0.433313 10.134C0.333313 11.9007 0.333313 12.4673 0.333313 17.0007C0.333313 21.534 0.333313 22.1007 0.433313 23.8673C0.461996 25.2521 0.726914 26.6217 1.21665 27.9173C1.62361 29.0333 2.27902 30.042 3.13331 30.8673C3.96154 31.7181 4.96944 32.3729 6.08331 32.784C7.37888 33.2737 8.74857 33.5386 10.1333 33.5673C11.9 33.6673 12.4666 33.6673 17 33.6673C21.5333 33.6673 22.1 33.6673 23.8666 33.5673C25.2514 33.5386 26.6211 33.2737 27.9166 32.784C29.0326 32.377 30.0414 31.7216 30.8666 30.8673C31.7204 30.0383 32.3805 29.031 32.8 27.9173C33.2752 26.6183 33.5342 25.2502 33.5667 23.8673C33.5667 22.1007 33.6666 21.534 33.6666 17.0007C33.6666 12.4673 33.6666 11.9007 33.5667 10.134ZM30.5666 23.6673C30.5545 24.7253 30.3629 25.7735 30 26.7673C29.7339 27.4926 29.3064 28.148 28.75 28.684C28.2094 29.2348 27.5554 29.6614 26.8333 29.934C25.8395 30.2969 24.7913 30.4885 23.7333 30.5007C22.0666 30.584 21.45 30.6007 17.0666 30.6007C12.6833 30.6007 12.0666 30.6007 10.4 30.5007C9.30147 30.5212 8.20764 30.3521 7.16665 30.0007C6.47628 29.7141 5.85224 29.2886 5.33331 28.7507C4.78013 28.2152 4.35805 27.5593 4.09998 26.834C3.69307 25.8259 3.46739 24.7539 3.43331 23.6673C3.43331 22.0007 3.33331 21.384 3.33331 17.0007C3.33331 12.6173 3.33331 12.0007 3.43331 10.334C3.44078 9.25241 3.63823 8.18056 4.01665 7.16732C4.31006 6.46384 4.76042 5.83675 5.33331 5.33398C5.83967 4.76093 6.46546 4.30581 7.16665 4.00065C8.18257 3.63406 9.25331 3.44245 10.3333 3.43398C12 3.43398 12.6166 3.33398 17 3.33398C21.3833 3.33398 22 3.33398 23.6666 3.43398C24.7246 3.44612 25.7728 3.63773 26.7666 4.00065C27.524 4.28174 28.2038 4.73873 28.75 5.33398C29.2962 5.84595 29.7229 6.47187 30 7.16732C30.3704 8.18221 30.5621 9.25362 30.5666 10.334C30.65 12.0007 30.6666 12.6173 30.6666 17.0007C30.6666 21.384 30.65 22.0007 30.5666 23.6673ZM17 8.45065C15.3097 8.45395 13.6583 8.95819 12.2544 9.89968C10.8506 10.8412 9.75728 12.1776 9.1127 13.7402C8.46813 15.3028 8.30119 17.0214 8.63297 18.6789C8.96475 20.3363 9.78037 21.8582 10.9768 23.0523C12.1732 24.2464 13.6967 25.059 15.3547 25.3876C17.0128 25.7161 18.7311 25.5458 20.2924 24.8982C21.8538 24.2506 23.1881 23.1547 24.1269 21.749C25.0656 20.3434 25.5666 18.691 25.5666 17.0007C25.5689 15.8758 25.3487 14.7617 24.9187 13.7222C24.4888 12.6828 23.8576 11.7387 23.0614 10.9441C22.2653 10.1495 21.3199 9.52011 20.2796 9.0922C19.2394 8.66428 18.1248 8.44626 17 8.45065ZM17 22.5507C15.9023 22.5507 14.8293 22.2252 13.9166 21.6153C13.0039 21.0055 12.2925 20.1387 11.8724 19.1245C11.4524 18.1104 11.3425 16.9945 11.5566 15.9179C11.7708 14.8413 12.2994 13.8524 13.0755 13.0762C13.8517 12.3 14.8406 11.7714 15.9172 11.5573C16.9938 11.3431 18.1097 11.4531 19.1239 11.8731C20.138 12.2932 21.0048 13.0045 21.6146 13.9172C22.2245 14.8299 22.55 15.903 22.55 17.0007C22.55 17.7295 22.4064 18.4512 22.1275 19.1245C21.8486 19.7979 21.4398 20.4097 20.9244 20.9251C20.4091 21.4405 19.7972 21.8493 19.1239 22.1282C18.4505 22.4071 17.7288 22.5507 17 22.5507Z" fill="#FAFAFA"/>
</svg>
