<svg width="28" height="22" viewBox="0 0 28 22" fill="none" xmlns="http://www.w3.org/2000/svg">
<path d="M23.3337 0.333984H4.66699C3.60613 0.333984 2.58871 0.755412 1.83857 1.50556C1.08842 2.2557 0.666992 3.27312 0.666992 4.33398V17.6673C0.666992 18.7282 1.08842 19.7456 1.83857 20.4957C2.58871 21.2459 3.60613 21.6673 4.66699 21.6673H23.3337C24.3945 21.6673 25.4119 21.2459 26.1621 20.4957C26.9122 19.7456 27.3337 18.7282 27.3337 17.6673V4.33398C27.3337 3.27312 26.9122 2.2557 26.1621 1.50556C25.4119 0.755412 24.3945 0.333984 23.3337 0.333984ZM22.5697 3.00065L14.8003 9.40065C14.5783 9.56957 14.3086 9.66412 14.0297 9.67082C13.7508 9.67753 13.4769 9.59604 13.247 9.43798L5.43099 3.00065H22.5697ZM23.3337 19.0007H4.66699C4.31337 19.0007 3.97423 18.8602 3.72418 18.6101C3.47413 18.3601 3.33366 18.0209 3.33366 17.6673V4.73398L11.6003 11.534C12.2882 12.0491 13.1249 12.3266 13.9843 12.3247C14.8737 12.3233 15.7386 12.0327 16.4483 11.4966L24.667 4.73398V17.6673C24.667 18.0209 24.5265 18.3601 24.2765 18.6101C24.0264 18.8602 23.6873 19.0007 23.3337 19.0007Z" fill="#FAFAFA"/>
</svg>
