<svg width="21" height="20" viewBox="0 0 21 20" fill="none" xmlns="http://www.w3.org/2000/svg">
<path d="M18.4397 10.9994C18.2197 10.9994 17.9897 10.9294 17.7697 10.8794C17.3242 10.7812 16.8864 10.6509 16.4597 10.4894C15.9958 10.3206 15.4859 10.3294 15.028 10.514C14.5702 10.6986 14.1968 11.046 13.9797 11.4894L13.7597 11.9394C12.7857 11.3976 11.8907 10.7246 11.0997 9.93938C10.3145 9.1484 9.64156 8.25338 9.09974 7.27938L9.51974 6.99938C9.9631 6.7823 10.3105 6.40891 10.4951 5.95107C10.6797 5.49323 10.6885 4.98329 10.5197 4.51938C10.361 4.0918 10.2307 3.65418 10.1297 3.20938C10.0797 2.98938 10.0397 2.75938 10.0097 2.52938C9.8883 1.825 9.51936 1.18712 8.96936 0.730619C8.41935 0.274117 7.72443 0.0289887 7.00974 0.0393798H4.00974C3.57877 0.0353333 3.15198 0.124193 2.75844 0.29991C2.3649 0.475627 2.01384 0.734076 1.72917 1.05766C1.44449 1.38125 1.23287 1.76237 1.10872 2.17509C0.984576 2.58781 0.950814 3.02244 1.00973 3.44938C1.54247 7.63876 3.45576 11.5313 6.44739 14.512C9.43901 17.4928 13.3384 19.3919 17.5297 19.9094H17.9097C18.6472 19.9105 19.3591 19.6399 19.9097 19.1494C20.2261 18.8664 20.4788 18.5196 20.6512 18.1317C20.8236 17.7438 20.9117 17.3238 20.9097 16.8994V13.8994C20.8975 13.2048 20.6445 12.5359 20.1941 12.007C19.7436 11.4782 19.1236 11.122 18.4397 10.9994ZM18.9397 16.9994C18.9396 17.1414 18.9091 17.2817 18.8505 17.411C18.7919 17.5403 18.7064 17.6557 18.5997 17.7494C18.488 17.8459 18.3573 17.9179 18.2161 17.961C18.0749 18.004 17.9263 18.0171 17.7797 17.9994C14.0346 17.5192 10.556 15.8059 7.89245 13.1297C5.22893 10.4535 3.53215 6.96672 3.06974 3.21938C3.05382 3.0729 3.06777 2.92471 3.11074 2.78377C3.15371 2.64283 3.2248 2.51207 3.31974 2.39938C3.41345 2.29271 3.5288 2.20722 3.65811 2.1486C3.78743 2.08997 3.92775 2.05956 4.06974 2.05938H7.06974C7.30228 2.05421 7.52936 2.13026 7.71188 2.27445C7.8944 2.41864 8.02095 2.62195 8.06974 2.84938C8.10974 3.12271 8.15974 3.39271 8.21974 3.65938C8.33526 4.18652 8.48899 4.70456 8.67974 5.20938L7.27974 5.85938C7.16003 5.9143 7.05236 5.99233 6.96289 6.08898C6.87343 6.18563 6.80394 6.299 6.75841 6.42258C6.71288 6.54616 6.69221 6.67751 6.69758 6.8091C6.70296 6.94069 6.73428 7.06993 6.78973 7.18938C8.22894 10.2721 10.707 12.7502 13.7897 14.1894C14.0332 14.2894 14.3063 14.2894 14.5497 14.1894C14.6744 14.1448 14.7891 14.0758 14.8869 13.9866C14.9848 13.8973 15.0639 13.7895 15.1197 13.6694L15.7397 12.2694C16.2567 12.4543 16.7843 12.6079 17.3197 12.7294C17.5864 12.7894 17.8564 12.8394 18.1297 12.8794C18.3572 12.9282 18.5605 13.0547 18.7047 13.2372C18.8489 13.4198 18.9249 13.6468 18.9197 13.8794L18.9397 16.9994Z" fill="#F46B5B"/>
</svg>
