<svg width="28" height="28" viewBox="0 0 28 28" fill="none" xmlns="http://www.w3.org/2000/svg">
<path d="M23.9192 15.3325C23.6258 15.3325 23.3192 15.2392 23.0258 15.1725C22.4318 15.0416 21.848 14.8678 21.2792 14.6525C20.6606 14.4275 19.9807 14.4392 19.3702 14.6853C18.7598 14.9315 18.2619 15.3947 17.9725 15.9858L17.6792 16.5858C16.3805 15.8634 15.1871 14.9661 14.1325 13.9192C13.0855 12.8645 12.1883 11.6712 11.4658 10.3725L12.0258 9.99917C12.617 9.70973 13.0802 9.21188 13.3264 8.60143C13.5725 7.99098 13.5842 7.31106 13.3592 6.69251C13.1475 6.1224 12.9737 5.5389 12.8392 4.94584C12.7725 4.65251 12.7192 4.34584 12.6792 4.03917C12.5172 3.1 12.0253 2.2495 11.292 1.64083C10.5586 1.03216 9.63209 0.705318 8.67916 0.719173H4.67916C4.10453 0.713778 3.53549 0.832258 3.01077 1.06655C2.48605 1.30084 2.01797 1.64543 1.6384 2.07688C1.25883 2.50833 0.976671 3.0165 0.811142 3.56679C0.645613 4.11709 0.600597 4.69659 0.679158 5.26584C1.38948 10.8517 3.94053 16.0417 7.92936 20.016C11.9182 23.9904 17.1174 26.5225 22.7058 27.2125H23.2125C24.1957 27.214 25.145 26.8532 25.8792 26.1992C26.301 25.8219 26.6379 25.3594 26.8678 24.8423C27.0976 24.3251 27.2151 23.7651 27.2125 23.1992V19.1992C27.1962 18.273 26.8589 17.3812 26.2583 16.6761C25.6577 15.9709 24.8309 15.496 23.9192 15.3325ZM24.5858 23.3325C24.5856 23.5218 24.545 23.7089 24.4669 23.8813C24.3887 24.0538 24.2747 24.2076 24.1325 24.3325C23.9835 24.4611 23.8093 24.5572 23.621 24.6146C23.4328 24.672 23.2346 24.6895 23.0392 24.6658C18.0457 24.0256 13.4075 21.7412 9.85611 18.1729C6.30475 14.6046 4.04237 9.95562 3.42582 4.95917C3.4046 4.76386 3.4232 4.56628 3.48049 4.37836C3.53779 4.19044 3.63258 4.01609 3.75916 3.86584C3.8841 3.72362 4.03791 3.60963 4.21033 3.53146C4.38275 3.4533 4.56984 3.41275 4.75916 3.41251H8.75916C9.06922 3.40561 9.37199 3.50701 9.61535 3.69927C9.85871 3.89152 10.0274 4.1626 10.0925 4.46584C10.1458 4.83028 10.2125 5.19028 10.2925 5.54584C10.4465 6.2487 10.6515 6.93941 10.9058 7.61251L9.03916 8.47917C8.87955 8.5524 8.73599 8.65644 8.6167 8.7853C8.49742 8.91417 8.40476 9.06533 8.34405 9.2301C8.28335 9.39487 8.25579 9.57002 8.26295 9.74547C8.27012 9.92092 8.31188 10.0932 8.38582 10.2525C10.3048 14.3628 13.6088 17.6669 17.7192 19.5858C18.0438 19.7192 18.4079 19.7192 18.7325 19.5858C18.8988 19.5264 19.0516 19.4344 19.1821 19.3154C19.3125 19.1964 19.418 19.0526 19.4925 18.8925L20.3192 17.0258C21.0084 17.2723 21.7119 17.4772 22.4258 17.6392C22.7814 17.7192 23.1414 17.7858 23.5058 17.8392C23.8091 17.9042 24.0801 18.073 24.2724 18.3163C24.4647 18.5597 24.5661 18.8624 24.5592 19.1725L24.5858 23.3325Z" fill="#FAFAFA"/>
</svg>
