<svg width="32" height="28" viewBox="0 0 32 28" fill="none" xmlns="http://www.w3.org/2000/svg">
<path d="M10.1834 27.3332H10.05C7.36396 27.3097 4.71674 26.6892 2.30003 25.5165C1.85549 25.3077 1.48946 24.9621 1.25554 24.5302C1.02161 24.0984 0.932074 23.603 1.00003 23.1165C1.07394 22.6268 1.30068 22.173 1.64787 21.8198C1.99507 21.4666 2.44498 21.2321 2.93336 21.1499C4.43105 20.9501 5.87184 20.4452 7.1667 19.6665C4.91863 17.9089 3.18795 15.5758 2.15806 12.9145C1.12817 10.2533 0.837449 7.36294 1.3167 4.54987C1.38168 4.10429 1.5733 3.68676 1.86878 3.34697C2.16425 3.00718 2.55112 2.75943 2.98336 2.6332C3.40389 2.50114 3.85394 2.49549 4.27764 2.61697C4.70135 2.73846 5.08004 2.98171 5.3667 3.31654C6.34003 4.59284 7.56319 5.65747 8.96154 6.44548C10.3599 7.23348 11.9041 7.72834 13.5 7.89987C13.5763 5.93629 14.4201 4.08106 15.85 2.7332C16.564 2.04949 17.407 1.51472 18.3297 1.16005C19.2525 0.80538 20.2366 0.637901 21.2247 0.667375C22.2128 0.696848 23.1852 0.922684 24.0852 1.33172C24.9851 1.74076 25.7947 2.32482 26.4667 3.04987C26.6418 3.20465 26.8593 3.30329 27.0911 3.33301C27.3229 3.36272 27.5582 3.32215 27.7667 3.21654C28.1641 3.02912 28.6066 2.95856 29.0425 3.01311C29.4785 3.06766 29.89 3.24506 30.2289 3.52461C30.5679 3.80417 30.8204 4.17435 30.9569 4.59196C31.0934 5.00958 31.1084 5.45741 31 5.8832C30.6156 7.46673 29.8873 8.94619 28.8667 10.2165C28.6418 14.9578 26.5515 19.4178 23.0516 22.6242C19.5517 25.8306 14.9261 27.5233 10.1834 27.3332ZM10.1834 23.9999H10.3167C12.2545 24.0665 14.1862 23.7478 15.9999 23.0623C17.8136 22.3768 19.4732 21.3381 20.8824 20.0063C22.2917 18.6746 23.4225 17.0764 24.2095 15.3044C24.9964 13.5323 25.4237 11.6217 25.4667 9.6832C25.4942 9.15196 25.7133 8.64867 26.0834 8.26654C26.4899 7.75195 26.8365 7.1928 27.1167 6.59987C26.5163 6.60101 25.9224 6.47542 25.3738 6.2313C24.8253 5.98718 24.3344 5.63003 23.9334 5.1832C23.5477 4.8008 23.0896 4.49917 22.5859 4.29598C22.0822 4.09279 21.5431 3.99212 21 3.99987C20.4515 3.98569 19.9056 4.07998 19.3937 4.27733C18.8817 4.47468 18.4138 4.7712 18.0167 5.14987C17.481 5.65821 17.0882 6.29832 16.8776 7.00615C16.667 7.71398 16.646 8.4647 16.8167 9.1832L17.25 11.0832L15.3 11.2165C13.3019 11.3795 11.2921 11.1061 9.41005 10.4155C7.52797 9.7248 5.8185 8.63329 4.40003 7.21654C4.3392 9.41053 4.88803 11.5784 5.98552 13.4792C7.08301 15.3799 8.68615 16.939 10.6167 17.9832L12.2 18.8832L11.15 20.3832C10.0145 21.8724 8.45867 22.987 6.68336 23.5832C7.82222 23.8686 8.99265 24.0086 10.1667 23.9999H10.1834Z" fill="#FAFAFA"/>
</svg>
