<svg width="32" height="28" viewBox="0 0 32 28" fill="none" xmlns="http://www.w3.org/2000/svg">
<path d="M10.183 27.3332H10.0497C7.3636 27.3097 4.71637 26.6892 2.29966 25.5165C1.85512 25.3077 1.48909 24.9621 1.25517 24.5302C1.02125 24.0984 0.931708 23.603 0.999664 23.1165C1.07357 22.6268 1.30031 22.173 1.64751 21.8198C1.99471 21.4666 2.44461 21.2321 2.933 21.1499C4.43068 20.9501 5.87147 20.4452 7.16633 19.6665C4.91827 17.9089 3.18758 15.5758 2.1577 12.9145C1.12781 10.2533 0.837083 7.36294 1.31633 4.54987C1.38131 4.10429 1.57294 3.68676 1.86841 3.34697C2.16388 3.00718 2.55076 2.75943 2.983 2.6332C3.40352 2.50114 3.85357 2.49549 4.27728 2.61697C4.70098 2.73846 5.07967 2.98171 5.36633 3.31654C6.33967 4.59284 7.56282 5.65747 8.96117 6.44548C10.3595 7.23348 11.9038 7.72834 13.4997 7.89987C13.5759 5.93629 14.4197 4.08106 15.8497 2.7332C16.5637 2.04949 17.4066 1.51472 18.3294 1.16005C19.2521 0.80538 20.2362 0.637901 21.2243 0.667375C22.2125 0.696848 23.1848 0.922684 24.0848 1.33172C24.9848 1.74076 25.7943 2.32482 26.4663 3.04987C26.6414 3.20465 26.8589 3.30329 27.0907 3.33301C27.3225 3.36272 27.5579 3.32215 27.7663 3.21654C28.1637 3.02912 28.6062 2.95856 29.0422 3.01311C29.4781 3.06766 29.8896 3.24506 30.2286 3.52461C30.5675 3.80417 30.82 4.17435 30.9565 4.59196C31.0931 5.00958 31.108 5.45741 30.9997 5.8832C30.6152 7.46673 29.8869 8.94619 28.8663 10.2165C28.6414 14.9578 26.5511 19.4178 23.0512 22.6242C19.5514 25.8306 14.9258 27.5233 10.183 27.3332ZM10.183 23.9999H10.3163C12.2541 24.0665 14.1858 23.7478 15.9995 23.0623C17.8132 22.3768 19.4728 21.3381 20.8821 20.0063C22.2913 18.6746 23.4222 17.0764 24.2091 15.3044C24.996 13.5323 25.4234 11.6217 25.4663 9.6832C25.4939 9.15196 25.7129 8.64867 26.083 8.26654C26.4895 7.75195 26.8362 7.1928 27.1163 6.59987C26.5159 6.60101 25.922 6.47542 25.3735 6.2313C24.8249 5.98718 24.3341 5.63003 23.933 5.1832C23.5473 4.8008 23.0892 4.49917 22.5856 4.29598C22.0819 4.09279 21.5427 3.99212 20.9997 3.99987C20.4512 3.98569 19.9053 4.07998 19.3933 4.27733C18.8813 4.47468 18.4134 4.7712 18.0163 5.14987C17.4806 5.65821 17.0878 6.29832 16.8772 7.00615C16.6666 7.71398 16.6456 8.4647 16.8163 9.1832L17.2497 11.0832L15.2997 11.2165C13.3015 11.3795 11.2918 11.1061 9.40969 10.4155C7.52761 9.7248 5.81814 8.63329 4.39966 7.21654C4.33883 9.41053 4.88767 11.5784 5.98516 13.4792C7.08264 15.3799 8.68578 16.939 10.6163 17.9832L12.1997 18.8832L11.1497 20.3832C10.0142 21.8724 8.4583 22.987 6.683 23.5832C7.82185 23.8686 8.99228 24.0086 10.1663 23.9999H10.183Z" fill="#FAFAFA"/>
</svg>
